<svg width="14" height="14" viewBox="0 0 14 14" fill="none" xmlns="http://www.w3.org/2000/svg">
<g id="Icon/Edit" clip-path="url(#clip0_870_578)">
<path id="Vector (Stroke)" fill-rule="evenodd" clip-rule="evenodd" d="M1.19898 2.36585C1.49982 2.06501 1.90784 1.896 2.33329 1.896H6.41663C6.65825 1.896 6.85413 2.09187 6.85413 2.3335C6.85413 2.57512 6.65825 2.771 6.41663 2.771H2.33329C2.13991 2.771 1.95444 2.84782 1.81769 2.98456C1.68095 3.12131 1.60413 3.30678 1.60413 3.50016V11.6668C1.60413 11.8602 1.68095 12.0457 1.81769 12.1824C1.95444 12.3192 2.13991 12.396 2.33329 12.396H10.5C10.6933 12.396 10.8788 12.3192 11.0156 12.1824C11.1523 12.0457 11.2291 11.8602 11.2291 11.6668V7.5835C11.2291 7.34187 11.425 7.146 11.6666 7.146C11.9082 7.146 12.1041 7.34187 12.1041 7.5835V11.6668C12.1041 12.0923 11.9351 12.5003 11.6343 12.8011C11.3334 13.102 10.9254 13.271 10.5 13.271H2.33329C1.90784 13.271 1.49981 13.102 1.19898 12.8011C0.898136 12.5003 0.729126 12.0923 0.729126 11.6668V3.50016C0.729126 3.07471 0.898136 2.66669 1.19898 2.36585Z" fill="#515151"/>
<path id="Vector (Stroke)_2" fill-rule="evenodd" clip-rule="evenodd" d="M11.6666 1.5332C11.4545 1.5332 11.251 1.61748 11.101 1.7675L5.64502 7.22348L5.26792 8.73185L6.7763 8.35476L12.2323 2.89878C12.3823 2.74876 12.4666 2.5453 12.4666 2.33314C12.4666 2.12098 12.3823 1.91752 12.2323 1.7675C12.0823 1.61748 11.8788 1.5332 11.6666 1.5332ZM10.4823 1.14878C10.7964 0.834669 11.2224 0.658203 11.6666 0.658203C12.1109 0.658203 12.5369 0.834669 12.851 1.14878C13.1651 1.46289 13.3416 1.88892 13.3416 2.33314C13.3416 2.77736 13.1651 3.20339 12.851 3.5175L7.30933 9.05917C7.25326 9.11524 7.183 9.15501 7.10608 9.17424L4.77274 9.75758C4.62366 9.79485 4.46594 9.75117 4.35728 9.6425C4.24861 9.53383 4.20493 9.37612 4.2422 9.22703L4.82553 6.8937C4.84476 6.81677 4.88454 6.74652 4.94061 6.69045L10.4823 1.14878Z" fill="#515151"/>
</g>
<defs>
<clipPath id="clip0_870_578">
<rect width="14" height="14" fill="white"/>
</clipPath>
</defs>
</svg>
