<svg width="26" height="26" viewBox="0 0 26 26" fill="none" xmlns="http://www.w3.org/2000/svg">
<g id="Icon/More">
<path id="Vector (Stroke)" fill-rule="evenodd" clip-rule="evenodd" d="M5.41658 10.8333C6.6132 10.8333 7.58325 11.8033 7.58325 12.9999C7.58325 14.1965 6.6132 15.1666 5.41658 15.1666C4.21997 15.1666 3.24992 14.1965 3.24992 12.9999C3.24992 11.8033 4.21997 10.8333 5.41658 10.8333Z" fill="black"/>
<path id="Vector (Stroke)_2" fill-rule="evenodd" clip-rule="evenodd" d="M13.0001 10.8333C14.1967 10.8333 15.1667 11.8033 15.1667 12.9999C15.1667 14.1965 14.1967 15.1666 13.0001 15.1666C11.8035 15.1666 10.8334 14.1965 10.8334 12.9999C10.8334 11.8033 11.8035 10.8333 13.0001 10.8333Z" fill="black"/>
<path id="Vector (Stroke)_3" fill-rule="evenodd" clip-rule="evenodd" d="M20.5833 10.8333C21.78 10.8333 22.75 11.8033 22.75 12.9999C22.75 14.1965 21.78 15.1666 20.5833 15.1666C19.3867 15.1666 18.4167 14.1965 18.4167 12.9999C18.4167 11.8033 19.3867 10.8333 20.5833 10.8333Z" fill="black"/>
</g>
</svg>
